<?xml version="1.0"?>
<svg xmlns="http://www.w3.org/2000/svg" height="512px" viewBox="-12 0 504 504.33599" width="512px" class="hovered-paths"><g><path d="m10.054688 504.335938 28.464843-134.191407c-59.507812-92.203125-48.898437-213.019531 25.765625-293.4375 74.664063-80.421875 194.363282-99.957031 290.71875-47.449219 96.359375 52.507813 144.832032 163.683594 117.730469 270.019532-27.105469 106.335937-122.878906 180.746094-232.617187 180.722656-33.804688.019531-67.222657-7.1875-98.015626-21.136719zm0 0" fill="#e76e54" data-original="#E76E54" class="active-path" style="fill:#FFFFFF" data-old_color="#e76e54"/><g fill="#fff"><path d="m240.117188 288c35.347656 0 64-28.652344 64-64v-96c0-35.347656-28.652344-64-64-64-35.34375 0-64 28.652344-64 64v96c0 35.347656 28.65625 64 64 64zm0 0" data-original="#FFF" class="" style="fill:#61605C" data-old_color="#FFF"/><path d="m352.117188 176c-8.835938 0-16 7.164062-16 16v32c-.023438 27.65625-11.964844 53.957031-32.761719 72.183594-20.800781 18.222656-48.441407 26.605468-75.859375 23-48.496094-7.417969-84.085938-49.472656-83.378906-98.527344v-28.65625c0-8.835938-7.164063-16-16-16-8.835938 0-16 7.164062-16 16v27.472656c-.722657 65.621094 47.09375 121.707032 112 131.375v33.152344h-16c-8.835938 0-16 7.164062-16 16s7.164062 16 16 16h64c8.835937 0 16-7.164062 16-16s-7.164063-16-16-16h-16v-33.105469c63.933593-8.109375 111.894531-62.449219 112-126.894531v-32c0-8.835938-7.164063-16-16-16zm0 0" data-original="#FFF" class="" style="fill:#61605C" data-old_color="#FFF"/></g></g> </svg>
