<?xml version="1.0"?>
<svg xmlns="http://www.w3.org/2000/svg" height="512px" viewBox="0 0 512 512" width="512px"><g><path d="m355 79v40h-40v-40zm-277 0v40h40v-40zm79 0v40h40v-40zm237 0v40h40v-40zm-315 314v40h40v-40zm77 0v40h40v-40zm80-314v40h40v-40zm276 298c0-74.4375-60.5625-135-135-135s-135 60.5625-135 135 60.5625 135 135 135 135-60.5625 135-135zm-40 0c0 52.382812-42.617188 95-95 95s-95-42.617188-95-95 42.617188-95 95-95 95 42.617188 95 95zm-42-20h-34v-47h-40v87h74zm-199.902344 115h-170.097656c-11.027344 0-20-8.972656-20-20v-392c0-11.027344 8.972656-20 20-20h392c11.027344 0 20 8.972656 20 20v170.097656c15.089844 9.792969 28.585938 21.835938 40 35.664063v-205.761719c0-33.085938-26.914062-60-60-60h-392c-33.085938 0-60 26.914062-60 60v392c0 33.085938 26.914062 60 60 60h205.761719c-13.828125-11.414062-25.871094-24.910156-35.664063-40zm0 0" data-original="#000000" class="active-path" data-old_color="#000000" fill="#FFFFFF"/></g> </svg>
